<svg width="31" height="31" viewBox="0 0 31 31" fill="none" xmlns="http://www.w3.org/2000/svg">
<path d="M27.8268 21.4015V25.196C27.8282 25.5483 27.7561 25.8969 27.615 26.2197C27.4738 26.5424 27.2669 26.8322 27.0073 27.0703C26.7477 27.3084 26.4413 27.4897 26.1076 27.6026C25.7739 27.7154 25.4203 27.7574 25.0695 27.7257C21.1774 27.3027 17.4388 25.9728 14.1541 23.8426C11.098 21.9007 8.50707 19.3097 6.56515 16.2537C4.42757 12.9541 3.09731 9.19727 2.68214 5.28771C2.65053 4.93794 2.6921 4.58543 2.8042 4.25261C2.91629 3.91979 3.09646 3.61396 3.33323 3.35458C3.57 3.09521 3.85818 2.88797 4.17943 2.74608C4.50067 2.60418 4.84795 2.53073 5.19914 2.5304H8.9936C9.60743 2.52435 10.2025 2.74172 10.6679 3.14198C11.1333 3.54224 11.4373 4.09808 11.5232 4.70589C11.6834 5.9202 11.9804 7.1125 12.4086 8.26004C12.5788 8.71275 12.6156 9.20475 12.5148 9.67775C12.4139 10.1508 12.1795 10.5849 11.8395 10.9288L10.2331 12.5351C12.0337 15.7017 14.6555 18.3235 17.8221 20.1241L19.4284 18.5177C19.7723 18.1777 20.2064 17.9433 20.6794 17.8425C21.1524 17.7416 21.6445 17.7784 22.0972 17.9486C23.2447 18.3768 24.437 18.6738 25.6513 18.834C26.2657 18.9206 26.8268 19.2301 27.228 19.7035C27.6291 20.1769 27.8422 20.7812 27.8268 21.4015Z" stroke="#A0A0A5" stroke-width="2.52964" stroke-linecap="round" stroke-linejoin="round"/>
</svg>
