<svg width="19" height="19" viewBox="0 0 19 19" fill="none" xmlns="http://www.w3.org/2000/svg">
<path d="M7.58831 15.1775L6.63969 13.2803L4.55273 13.6597" stroke="#99A1AF" stroke-width="1.51779" stroke-linecap="round" stroke-linejoin="round"/>
<path d="M7.58831 3.03418L6.63969 4.93141L4.55273 4.55197" stroke="#99A1AF" stroke-width="1.51779" stroke-linecap="round" stroke-linejoin="round"/>
<path d="M10.625 15.1775L11.5736 13.2803L13.6606 13.6597" stroke="#99A1AF" stroke-width="1.51779" stroke-linecap="round" stroke-linejoin="round"/>
<path d="M10.625 3.03418L11.5736 4.93141L13.6606 4.55197" stroke="#99A1AF" stroke-width="1.51779" stroke-linecap="round" stroke-linejoin="round"/>
<path d="M12.9021 15.9352L10.6254 11.3818H7.58984" stroke="#99A1AF" stroke-width="1.51779" stroke-linecap="round" stroke-linejoin="round"/>
<path d="M12.9017 2.27637L10.625 6.82973L11.7633 9.10641" stroke="#99A1AF" stroke-width="1.51779" stroke-linecap="round" stroke-linejoin="round"/>
<path d="M1.51758 9.1048H6.45038L7.58872 6.82812" stroke="#99A1AF" stroke-width="1.51779" stroke-linecap="round" stroke-linejoin="round"/>
<path d="M15.1774 7.58789L14.0391 9.10568L15.1774 10.6235" stroke="#99A1AF" stroke-width="1.51779" stroke-linecap="round" stroke-linejoin="round"/>
<path d="M16.6961 9.10547H11.7633L10.625 11.3821" stroke="#99A1AF" stroke-width="1.51779" stroke-linecap="round" stroke-linejoin="round"/>
<path d="M3.03516 7.58789L4.1735 9.10568L3.03516 10.6235" stroke="#99A1AF" stroke-width="1.51779" stroke-linecap="round" stroke-linejoin="round"/>
<path d="M5.3125 15.9355L7.58918 11.3821L6.45084 9.10547" stroke="#99A1AF" stroke-width="1.51779" stroke-linecap="round" stroke-linejoin="round"/>
<path d="M5.3125 2.27637L7.58918 6.82973H10.6248" stroke="#99A1AF" stroke-width="1.51779" stroke-linecap="round" stroke-linejoin="round"/>
</svg>
