<svg width="37" height="37" viewBox="0 0 37 37" fill="none" xmlns="http://www.w3.org/2000/svg">
<path d="M4.55469 13.6587L18.2148 3.03418L31.8748 13.6587V30.3543C31.8748 31.1594 31.555 31.9315 30.9857 32.5008C30.4165 33.0701 29.6444 33.3899 28.8393 33.3899H7.59026C6.78518 33.3899 6.01307 33.0701 5.44379 32.5008C4.87451 31.9315 4.55469 31.1594 4.55469 30.3543V13.6587Z" stroke="#A0A0A5" stroke-width="3.03557"/>
<path d="M13.6602 33.3908V18.2129H22.7669V33.3908" stroke="#A0A0A5" stroke-width="3.03557"/>
<path d="M18.2142 25.0436C19.4716 25.0436 20.4909 24.0243 20.4909 22.7669C20.4909 21.5095 19.4716 20.4902 18.2142 20.4902C16.9568 20.4902 15.9375 21.5095 15.9375 22.7669C15.9375 24.0243 16.9568 25.0436 18.2142 25.0436Z" fill="#A0A0A5" stroke="#A0A0A5" stroke-width="3.03557"/>
</svg>
