<svg width="31" height="31" viewBox="0 0 31 31" fill="none" xmlns="http://www.w3.org/2000/svg">
<path d="M11.3828 22.7663V6.32359L26.5607 3.79395V20.2366" stroke="#A0A0A5" stroke-width="2.52964" stroke-linecap="round" stroke-linejoin="round"/>
<path d="M7.58939 26.5606C9.68501 26.5606 11.3839 24.8618 11.3839 22.7661C11.3839 20.6705 9.68501 18.9717 7.58939 18.9717C5.49376 18.9717 3.79492 20.6705 3.79492 22.7661C3.79492 24.8618 5.49376 26.5606 7.58939 26.5606Z" stroke="#A0A0A5" stroke-width="2.52964" stroke-linecap="round" stroke-linejoin="round"/>
<path d="M22.7671 24.0323C24.8627 24.0323 26.5616 22.3335 26.5616 20.2378C26.5616 18.1422 24.8627 16.4434 22.7671 16.4434C20.6715 16.4434 18.9727 18.1422 18.9727 20.2378C18.9727 22.3335 20.6715 24.0323 22.7671 24.0323Z" stroke="#A0A0A5" stroke-width="2.52964" stroke-linecap="round" stroke-linejoin="round"/>
</svg>
